<svg preserveAspectRatio="none" width="100%" height="100%" overflow="visible" style="display: block;" viewBox="0 0 39 40" fill="none" xmlns="http://www.w3.org/2000/svg">
<g id="Group 381">
<g id="Subtract">
<path fill-rule="evenodd" clip-rule="evenodd" d="M26.3431 2.34315C24.8429 0.842855 22.808 0 20.6863 0H8C3.58172 0 0 3.58172 0 8V32C0 36.4183 3.58172 40 8 40H28C32.4183 40 36 36.4183 36 32V15.3137C36 13.192 35.1571 11.1571 33.6569 9.65685L26.3431 2.34315Z" fill="var(--fill-0, #3B82F6)"/>
<path fill-rule="evenodd" clip-rule="evenodd" d="M26.3431 2.34315C24.8429 0.842855 22.808 0 20.6863 0H8C3.58172 0 0 3.58172 0 8V32C0 36.4183 3.58172 40 8 40H28C32.4183 40 36 36.4183 36 32V15.3137C36 13.192 35.1571 11.1571 33.6569 9.65685L26.3431 2.34315Z" fill="var(--fill-1, white)" fill-opacity="0.8"/>
</g>
<path id="Intersect" fill-rule="evenodd" clip-rule="evenodd" d="M24 0.718506C24.8639 1.11164 25.6591 1.65903 26.3431 2.34309L33.6569 9.6568C33.6571 9.65703 33.6573 9.65725 33.6575 9.65748C34.3413 10.3414 34.8884 11.1363 35.2814 11.9999H29C26.2386 11.9999 24 9.76137 24 6.99995V0.718506Z" fill="var(--fill-0, #3B82F6)"/>
<path id="Rectangle 61" d="M15 21.5C15 20.1193 16.1193 19 17.5 19H36.5C37.8807 19 39 20.1193 39 21.5V30.5C39 31.8807 37.8807 33 36.5 33H17.5C16.1193 33 15 31.8807 15 30.5V21.5Z" fill="var(--fill-0, #3B82F6)"/>
<g id="DOC">
<path id="Vector" d="M34.041 29.596C33.6143 29.596 33.2197 29.5187 32.857 29.364C32.4997 29.2093 32.185 28.9933 31.913 28.716C31.6463 28.4387 31.4383 28.1133 31.289 27.74C31.1397 27.3667 31.065 26.9587 31.065 26.516C31.065 26.0733 31.137 25.6653 31.281 25.292C31.4303 24.9133 31.6383 24.588 31.905 24.316C32.177 24.0387 32.4943 23.8253 32.857 23.676C33.2197 23.5213 33.6143 23.444 34.041 23.444C34.4677 23.444 34.849 23.516 35.185 23.66C35.5263 23.804 35.8143 23.996 36.049 24.236C36.2837 24.4707 36.4517 24.7293 36.553 25.012L35.577 25.468C35.465 25.1693 35.2757 24.924 35.009 24.732C34.7423 24.5347 34.4197 24.436 34.041 24.436C33.6677 24.436 33.337 24.524 33.049 24.7C32.7663 24.876 32.545 25.1187 32.385 25.428C32.2303 25.7373 32.153 26.1 32.153 26.516C32.153 26.932 32.2303 27.2973 32.385 27.612C32.545 27.9213 32.7663 28.164 33.049 28.34C33.337 28.516 33.6677 28.604 34.041 28.604C34.4197 28.604 34.7423 28.508 35.009 28.316C35.2757 28.1187 35.465 27.8707 35.577 27.572L36.553 28.028C36.4517 28.3107 36.2837 28.572 36.049 28.812C35.8143 29.0467 35.5263 29.236 35.185 29.38C34.849 29.524 34.4677 29.596 34.041 29.596Z" fill="var(--fill-0, white)"/>
<path id="Vector_2" d="M27.1136 29.596C26.6762 29.596 26.2682 29.5187 25.8896 29.364C25.5109 29.2093 25.1802 28.9933 24.8976 28.716C24.6149 28.4387 24.3936 28.1133 24.2336 27.74C24.0789 27.3613 24.0016 26.9533 24.0016 26.516C24.0016 26.0733 24.0789 25.6653 24.2336 25.292C24.3882 24.9187 24.6069 24.5933 24.8896 24.316C25.1722 24.0387 25.5029 23.8253 25.8816 23.676C26.2602 23.5213 26.6709 23.444 27.1136 23.444C27.5562 23.444 27.9669 23.5213 28.3456 23.676C28.7242 23.8307 29.0549 24.0467 29.3376 24.324C29.6202 24.596 29.8389 24.9187 29.9936 25.292C30.1536 25.6653 30.2336 26.0733 30.2336 26.516C30.2336 26.9533 30.1536 27.3613 29.9936 27.74C29.8336 28.1133 29.6122 28.4387 29.3296 28.716C29.0469 28.9933 28.7162 29.2093 28.3376 29.364C27.9642 29.5187 27.5562 29.596 27.1136 29.596ZM27.1136 28.604C27.4069 28.604 27.6762 28.5533 27.9216 28.452C28.1669 28.3453 28.3802 28.1987 28.5616 28.012C28.7482 27.8253 28.8896 27.604 28.9856 27.348C29.0869 27.092 29.1376 26.8147 29.1376 26.516C29.1376 26.2173 29.0869 25.9427 28.9856 25.692C28.8896 25.436 28.7482 25.2147 28.5616 25.028C28.3802 24.836 28.1669 24.6893 27.9216 24.588C27.6762 24.4867 27.4069 24.436 27.1136 24.436C26.8256 24.436 26.5589 24.4867 26.3136 24.588C26.0682 24.6893 25.8522 24.836 25.6656 25.028C25.4842 25.2147 25.3429 25.436 25.2416 25.692C25.1402 25.9427 25.0896 26.2173 25.0896 26.516C25.0896 26.8147 25.1402 27.092 25.2416 27.348C25.3429 27.604 25.4842 27.8253 25.6656 28.012C25.8522 28.1987 26.0682 28.3453 26.3136 28.452C26.5589 28.5533 26.8256 28.604 27.1136 28.604Z" fill="var(--fill-0, white)"/>
<path id="Vector_3" d="M18.2157 29.5V23.54H20.1597C20.789 23.54 21.3357 23.668 21.7997 23.924C22.269 24.1747 22.6317 24.524 22.8877 24.972C23.1437 25.4147 23.2717 25.9293 23.2717 26.516C23.2717 27.0973 23.1437 27.6147 22.8877 28.068C22.6317 28.516 22.269 28.868 21.7997 29.124C21.3357 29.3747 20.789 29.5 20.1597 29.5H18.2157ZM19.3037 28.54H20.1837C20.589 28.54 20.9384 28.4573 21.2317 28.292C21.5304 28.1213 21.7624 27.8867 21.9277 27.588C22.093 27.284 22.1757 26.9267 22.1757 26.516C22.1757 26.1 22.093 25.7427 21.9277 25.444C21.7624 25.1453 21.5304 24.9133 21.2317 24.748C20.9384 24.5827 20.589 24.5 20.1837 24.5H19.3037V28.54Z" fill="var(--fill-0, white)"/>
</g>
</g>
</svg>
