<svg preserveAspectRatio="none" width="100%" height="100%" overflow="visible" style="display: block;" viewBox="0 0 39 40" fill="none" xmlns="http://www.w3.org/2000/svg">
<g id="Group 381">
<g id="Subtract">
<path fill-rule="evenodd" clip-rule="evenodd" d="M26.3431 2.34315C24.8429 0.842855 22.808 0 20.6863 0H8C3.58172 0 0 3.58172 0 8V32C0 36.4183 3.58172 40 8 40H28C32.4183 40 36 36.4183 36 32V15.3137C36 13.192 35.1571 11.1571 33.6569 9.65685L26.3431 2.34315Z" fill="var(--fill-0, #6366F1)"/>
<path fill-rule="evenodd" clip-rule="evenodd" d="M26.3431 2.34315C24.8429 0.842855 22.808 0 20.6863 0H8C3.58172 0 0 3.58172 0 8V32C0 36.4183 3.58172 40 8 40H28C32.4183 40 36 36.4183 36 32V15.3137C36 13.192 35.1571 11.1571 33.6569 9.65685L26.3431 2.34315Z" fill="var(--fill-1, white)" fill-opacity="0.8"/>
</g>
<path id="Intersect" fill-rule="evenodd" clip-rule="evenodd" d="M24 0.718506C24.8639 1.11164 25.6591 1.65903 26.3431 2.34309L33.6569 9.6568C33.6571 9.65703 33.6573 9.65725 33.6575 9.65748C34.3413 10.3414 34.8884 11.1363 35.2814 11.9999H29C26.2386 11.9999 24 9.76137 24 6.99995V0.718506Z" fill="var(--fill-0, #6366F1)"/>
<path id="Rectangle 61" d="M15 21.5C15 20.1193 16.1193 19 17.5 19H36.5C37.8807 19 39 20.1193 39 21.5V30.5C39 31.8807 37.8807 33 36.5 33H17.5C16.1193 33 15 31.8807 15 30.5V21.5Z" fill="var(--fill-0, #6366F1)"/>
<g id="JPG">
<path id="Vector" d="M31.3736 29.596C30.9469 29.596 30.5523 29.5187 30.1896 29.364C29.8269 29.2093 29.5096 28.9933 29.2376 28.716C28.9656 28.4387 28.7523 28.1133 28.5976 27.74C28.4483 27.3667 28.3736 26.9587 28.3736 26.516C28.3736 26.0733 28.4456 25.6653 28.5896 25.292C28.7389 24.9133 28.9469 24.588 29.2136 24.316C29.4856 24.0387 29.8029 23.8253 30.1656 23.676C30.5283 23.5213 30.9229 23.444 31.3496 23.444C31.7763 23.444 32.1576 23.516 32.4936 23.66C32.8349 23.804 33.1229 23.996 33.3576 24.236C33.5923 24.4707 33.7603 24.7293 33.8616 25.012L32.8936 25.476C32.7816 25.1667 32.5923 24.916 32.3256 24.724C32.0589 24.532 31.7336 24.436 31.3496 24.436C30.9763 24.436 30.6456 24.524 30.3576 24.7C30.0749 24.876 29.8536 25.1187 29.6936 25.428C29.5389 25.7373 29.4616 26.1 29.4616 26.516C29.4616 26.932 29.5416 27.2973 29.7016 27.612C29.8669 27.9213 30.0936 28.164 30.3816 28.34C30.6696 28.516 31.0003 28.604 31.3736 28.604C31.6776 28.604 31.9576 28.5453 32.2136 28.428C32.4696 28.3053 32.6749 28.1347 32.8296 27.916C32.9843 27.692 33.0616 27.428 33.0616 27.124V26.668L33.5576 27.1H31.3496V26.18H34.1496V26.78C34.1496 27.2387 34.0723 27.644 33.9176 27.996C33.7629 28.348 33.5523 28.644 33.2856 28.884C33.0243 29.1187 32.7283 29.2973 32.3976 29.42C32.0669 29.5373 31.7256 29.596 31.3736 29.596Z" fill="var(--fill-0, white)"/>
<path id="Vector_2" d="M23.3221 29.5V23.54H25.5461C25.9514 23.54 26.3088 23.6147 26.6181 23.764C26.9328 23.908 27.1781 24.1213 27.3541 24.404C27.5301 24.6813 27.6181 25.02 27.6181 25.42C27.6181 25.8147 27.5274 26.1533 27.3461 26.436C27.1701 26.7133 26.9274 26.9267 26.6181 27.076C26.3088 27.2253 25.9514 27.3 25.5461 27.3H24.4101V29.5H23.3221ZM24.4101 26.34H25.5621C25.7594 26.34 25.9301 26.3027 26.0741 26.228C26.2181 26.148 26.3301 26.0387 26.4101 25.9C26.4901 25.7613 26.5301 25.6013 26.5301 25.42C26.5301 25.2333 26.4901 25.0733 26.4101 24.94C26.3301 24.8013 26.2181 24.6947 26.0741 24.62C25.9301 24.54 25.7594 24.5 25.5621 24.5H24.4101V26.34Z" fill="var(--fill-0, white)"/>
<path id="Vector_3" d="M19.8775 29.5V28.5H20.2215C20.4775 28.5 20.6801 28.428 20.8295 28.284C20.9841 28.1347 21.0615 27.9373 21.0615 27.692V23.54H22.1575V27.652C22.1575 28.02 22.0775 28.3427 21.9175 28.62C21.7628 28.8973 21.5388 29.1133 21.2455 29.268C20.9575 29.4227 20.6161 29.5 20.2215 29.5H19.8775Z" fill="var(--fill-0, white)"/>
</g>
</g>
</svg>
