<svg preserveAspectRatio="none" width="100%" height="100%" overflow="visible" style="display: block;" viewBox="0 0 39 40" fill="none" xmlns="http://www.w3.org/2000/svg">
<g id="Group 381">
<g id="Subtract">
<path fill-rule="evenodd" clip-rule="evenodd" d="M26.3431 2.34315C24.8429 0.842855 22.808 0 20.6863 0H8C3.58172 0 0 3.58172 0 8V32C0 36.4183 3.58172 40 8 40H28C32.4183 40 36 36.4183 36 32V15.3137C36 13.192 35.1571 11.1571 33.6569 9.65685L26.3431 2.34315Z" fill="var(--fill-0, #17A34A)"/>
<path fill-rule="evenodd" clip-rule="evenodd" d="M26.3431 2.34315C24.8429 0.842855 22.808 0 20.6863 0H8C3.58172 0 0 3.58172 0 8V32C0 36.4183 3.58172 40 8 40H28C32.4183 40 36 36.4183 36 32V15.3137C36 13.192 35.1571 11.1571 33.6569 9.65685L26.3431 2.34315Z" fill="var(--fill-1, white)" fill-opacity="0.8"/>
</g>
<path id="Intersect" fill-rule="evenodd" clip-rule="evenodd" d="M24 0.718506C24.8639 1.11164 25.6591 1.65903 26.3431 2.34309L33.6569 9.6568C33.6571 9.65703 33.6573 9.65725 33.6575 9.65748C34.3413 10.3414 34.8884 11.1363 35.2814 11.9999H29C26.2386 11.9999 24 9.76137 24 6.99995V0.718506Z" fill="var(--fill-0, #17A34A)"/>
<path id="Rectangle 61" d="M15 21.5C15 20.1193 16.1193 19 17.5 19H36.5C37.8807 19 39 20.1193 39 21.5V30.5C39 31.8807 37.8807 33 36.5 33H17.5C16.1193 33 15 31.8807 15 30.5V21.5Z" fill="var(--fill-0, #17A34A)"/>
<g id="MP3">
<path id="Vector" d="M33.3527 29.596C33.0274 29.596 32.7181 29.5373 32.4248 29.42C32.1368 29.2973 31.8887 29.1267 31.6807 28.908C31.4781 28.684 31.3394 28.42 31.2647 28.116L32.2168 27.78C32.3128 28.052 32.4594 28.26 32.6567 28.404C32.8541 28.5427 33.0861 28.612 33.3527 28.612C33.5661 28.612 33.7501 28.572 33.9047 28.492C34.0647 28.412 34.1901 28.2973 34.2808 28.148C34.3714 27.9933 34.4167 27.812 34.4167 27.604C34.4167 27.396 34.3714 27.22 34.2808 27.076C34.1954 26.9267 34.0728 26.812 33.9128 26.732C33.7528 26.652 33.5634 26.612 33.3448 26.612C33.2434 26.612 33.1367 26.6227 33.0247 26.644C32.9181 26.6653 32.8221 26.6973 32.7367 26.74L32.4888 26.22L34.0328 24.46H31.6007V23.54H35.2568V24.396L33.7048 26.212L33.7207 25.804C34.0781 25.8093 34.3901 25.8867 34.6567 26.036C34.9234 26.1853 35.1314 26.3907 35.2808 26.652C35.4301 26.9133 35.5047 27.22 35.5047 27.572C35.5047 27.956 35.4114 28.3027 35.2248 28.612C35.0381 28.916 34.7821 29.156 34.4567 29.332C34.1314 29.508 33.7634 29.596 33.3527 29.596Z" fill="var(--fill-0, white)"/>
<path id="Vector_2" d="M26.3573 29.5V23.54H28.5813C28.9866 23.54 29.3439 23.6147 29.6532 23.764C29.9679 23.908 30.2132 24.1213 30.3892 24.404C30.5652 24.6813 30.6532 25.02 30.6532 25.42C30.6532 25.8147 30.5626 26.1533 30.3813 26.436C30.2053 26.7133 29.9626 26.9267 29.6532 27.076C29.3439 27.2253 28.9866 27.3 28.5813 27.3H27.4452V29.5H26.3573ZM27.4452 26.34H28.5972C28.7946 26.34 28.9653 26.3027 29.1093 26.228C29.2533 26.148 29.3653 26.0387 29.4453 25.9C29.5253 25.7613 29.5653 25.6013 29.5653 25.42C29.5653 25.2333 29.5253 25.0733 29.4453 24.94C29.3653 24.8013 29.2533 24.6947 29.1093 24.62C28.9653 24.54 28.7946 24.5 28.5972 24.5H27.4452V26.34Z" fill="var(--fill-0, white)"/>
<path id="Vector_3" d="M19.1766 29.5V23.54H20.2166L22.4486 26.572H21.9526L24.1366 23.54H25.1766V29.5H24.0806V24.78L24.5046 24.884L22.2406 27.9H22.1126L19.9046 24.884L20.2646 24.78V29.5H19.1766Z" fill="var(--fill-0, white)"/>
</g>
</g>
</svg>
