<svg preserveAspectRatio="none" width="100%" height="100%" overflow="visible" style="display: block;" viewBox="0 0 39 40" fill="none" xmlns="http://www.w3.org/2000/svg">
<g id="Group 381">
<g id="Subtract">
<path fill-rule="evenodd" clip-rule="evenodd" d="M26.3431 2.34315C24.8429 0.842855 22.808 0 20.6863 0H8C3.58172 0 0 3.58172 0 8V32C0 36.4183 3.58172 40 8 40H28C32.4183 40 36 36.4183 36 32V15.3137C36 13.192 35.1571 11.1571 33.6569 9.65685L26.3431 2.34315Z" fill="var(--fill-0, #17A3A3)"/>
<path fill-rule="evenodd" clip-rule="evenodd" d="M26.3431 2.34315C24.8429 0.842855 22.808 0 20.6863 0H8C3.58172 0 0 3.58172 0 8V32C0 36.4183 3.58172 40 8 40H28C32.4183 40 36 36.4183 36 32V15.3137C36 13.192 35.1571 11.1571 33.6569 9.65685L26.3431 2.34315Z" fill="var(--fill-1, white)" fill-opacity="0.8"/>
</g>
<path id="Intersect" fill-rule="evenodd" clip-rule="evenodd" d="M24 0.718506C24.8639 1.11164 25.6591 1.65903 26.3431 2.34309L33.6569 9.6568C33.6571 9.65703 33.6573 9.65725 33.6575 9.65748C34.3413 10.3414 34.8884 11.1363 35.2814 11.9999H29C26.2386 11.9999 24 9.76137 24 6.99995V0.718506Z" fill="var(--fill-0, #17A3A3)"/>
<path id="Rectangle 61" d="M15 21.5C15 20.1193 16.1193 19 17.5 19H36.5C37.8807 19 39 20.1193 39 21.5V30.5C39 31.8807 37.8807 33 36.5 33H17.5C16.1193 33 15 31.8807 15 30.5V21.5Z" fill="var(--fill-0, #17A3A3)"/>
<g id="MP4">
<path id="Vector" d="M33.6109 29.5V28.188H30.8749V27.276L33.5469 23.54H34.6829V27.276H35.5549V28.188H34.6829V29.5H33.6109ZM31.6749 27.668L31.4829 27.276H33.6109V24.396L33.8909 24.484L31.6749 27.668Z" fill="var(--fill-0, white)"/>
<path id="Vector_2" d="M25.9354 29.5V23.54H28.1594C28.5647 23.54 28.922 23.6147 29.2314 23.764C29.546 23.908 29.7914 24.1213 29.9674 24.404C30.1434 24.6813 30.2314 25.02 30.2314 25.42C30.2314 25.8147 30.1407 26.1533 29.9594 26.436C29.7834 26.7133 29.5407 26.9267 29.2314 27.076C28.922 27.2253 28.5647 27.3 28.1594 27.3H27.0234V29.5H25.9354ZM27.0234 26.34H28.1754C28.3727 26.34 28.5434 26.3027 28.6874 26.228C28.8314 26.148 28.9434 26.0387 29.0234 25.9C29.1034 25.7613 29.1434 25.6013 29.1434 25.42C29.1434 25.2333 29.1034 25.0733 29.0234 24.94C28.9434 24.8013 28.8314 24.6947 28.6874 24.62C28.5434 24.54 28.3727 24.5 28.1754 24.5H27.0234V26.34Z" fill="var(--fill-0, white)"/>
<path id="Vector_3" d="M18.7547 29.5V23.54H19.7947L22.0267 26.572H21.5307L23.7147 23.54H24.7547V29.5H23.6587V24.78L24.0827 24.884L21.8187 27.9H21.6907L19.4827 24.884L19.8427 24.78V29.5H18.7547Z" fill="var(--fill-0, white)"/>
</g>
</g>
</svg>
