<svg preserveAspectRatio="none" width="100%" height="100%" overflow="visible" style="display: block;" viewBox="0 0 39 40" fill="none" xmlns="http://www.w3.org/2000/svg">
<g id="Group 381">
<g id="Subtract">
<path fill-rule="evenodd" clip-rule="evenodd" d="M26.3431 2.34315C24.8429 0.842855 22.808 0 20.6863 0H8C3.58172 0 0 3.58172 0 8V32C0 36.4183 3.58172 40 8 40H28C32.4183 40 36 36.4183 36 32V15.3137C36 13.192 35.1571 11.1571 33.6569 9.65685L26.3431 2.34315Z" fill="var(--fill-0, #F21E1E)"/>
<path fill-rule="evenodd" clip-rule="evenodd" d="M26.3431 2.34315C24.8429 0.842855 22.808 0 20.6863 0H8C3.58172 0 0 3.58172 0 8V32C0 36.4183 3.58172 40 8 40H28C32.4183 40 36 36.4183 36 32V15.3137C36 13.192 35.1571 11.1571 33.6569 9.65685L26.3431 2.34315Z" fill="var(--fill-1, white)" fill-opacity="0.8"/>
</g>
<path id="Intersect" fill-rule="evenodd" clip-rule="evenodd" d="M24 0.718506C24.8639 1.11164 25.6591 1.65903 26.3431 2.34309L33.6569 9.6568C33.6571 9.65703 33.6573 9.65725 33.6575 9.65748C34.3413 10.3414 34.8884 11.1363 35.2814 11.9999H29C26.2386 11.9999 24 9.76137 24 6.99995V0.718506Z" fill="var(--fill-0, #F21E1E)"/>
<path id="Rectangle 61" d="M15 21.5C15 20.1193 16.1193 19 17.5 19H36.5C37.8807 19 39 20.1193 39 21.5V30.5C39 31.8807 37.8807 33 36.5 33H17.5C16.1193 33 15 31.8807 15 30.5V21.5Z" fill="var(--fill-0, #F21E1E)"/>
<g id="PDF">
<path id="Vector" d="M30.8269 29.5V23.54H34.8029V24.5H31.9149V26.148H34.4429V27.108H31.9149V29.5H30.8269Z" fill="var(--fill-0, white)"/>
<path id="Vector_2" d="M24.8651 29.5V23.54H26.8091C27.4384 23.54 27.9851 23.668 28.4491 23.924C28.9184 24.1747 29.2811 24.524 29.5371 24.972C29.7931 25.4147 29.9211 25.9293 29.9211 26.516C29.9211 27.0973 29.7931 27.6147 29.5371 28.068C29.2811 28.516 28.9184 28.868 28.4491 29.124C27.9851 29.3747 27.4384 29.5 26.8091 29.5H24.8651ZM25.9531 28.54H26.8331C27.2384 28.54 27.5877 28.4573 27.8811 28.292C28.1797 28.1213 28.4117 27.8867 28.5771 27.588C28.7424 27.284 28.8251 26.9267 28.8251 26.516C28.8251 26.1 28.7424 25.7427 28.5771 25.444C28.4117 25.1453 28.1797 24.9133 27.8811 24.748C27.5877 24.5827 27.2384 24.5 26.8331 24.5H25.9531V28.54Z" fill="var(--fill-0, white)"/>
<path id="Vector_3" d="M19.6376 29.5V23.54H21.8616C22.2669 23.54 22.6242 23.6147 22.9336 23.764C23.2482 23.908 23.4936 24.1213 23.6696 24.404C23.8456 24.6813 23.9336 25.02 23.9336 25.42C23.9336 25.8147 23.8429 26.1533 23.6616 26.436C23.4856 26.7133 23.2429 26.9267 22.9336 27.076C22.6242 27.2253 22.2669 27.3 21.8616 27.3H20.7256V29.5H19.6376ZM20.7256 26.34H21.8776C22.0749 26.34 22.2456 26.3027 22.3896 26.228C22.5336 26.148 22.6456 26.0387 22.7256 25.9C22.8056 25.7613 22.8456 25.6013 22.8456 25.42C22.8456 25.2333 22.8056 25.0733 22.7256 24.94C22.6456 24.8013 22.5336 24.6947 22.3896 24.62C22.2456 24.54 22.0749 24.5 21.8776 24.5H20.7256V26.34Z" fill="var(--fill-0, white)"/>
</g>
</g>
</svg>
