<svg preserveAspectRatio="none" width="100%" height="100%" overflow="visible" style="display: block;" viewBox="0 0 39 40" fill="none" xmlns="http://www.w3.org/2000/svg">
<g id="Group 381">
<g id="Subtract">
<path fill-rule="evenodd" clip-rule="evenodd" d="M26.3431 2.34315C24.8429 0.842855 22.808 0 20.6863 0H8C3.58172 0 0 3.58172 0 8V32C0 36.4183 3.58172 40 8 40H28C32.4183 40 36 36.4183 36 32V15.3137C36 13.192 35.1571 11.1571 33.6569 9.65685L26.3431 2.34315Z" fill="var(--fill-0, #F24E1E)"/>
<path fill-rule="evenodd" clip-rule="evenodd" d="M26.3431 2.34315C24.8429 0.842855 22.808 0 20.6863 0H8C3.58172 0 0 3.58172 0 8V32C0 36.4183 3.58172 40 8 40H28C32.4183 40 36 36.4183 36 32V15.3137C36 13.192 35.1571 11.1571 33.6569 9.65685L26.3431 2.34315Z" fill="var(--fill-1, white)" fill-opacity="0.8"/>
</g>
<path id="Intersect" fill-rule="evenodd" clip-rule="evenodd" d="M24 0.718506C24.8639 1.11164 25.6591 1.65903 26.3431 2.34309L33.6569 9.6568C33.6571 9.65703 33.6573 9.65725 33.6575 9.65748C34.3413 10.3414 34.8884 11.1363 35.2814 11.9999H29C26.2386 11.9999 24 9.76137 24 6.99995V0.718506Z" fill="var(--fill-0, #F24E1E)"/>
<path id="Rectangle 61" d="M15 21.5C15 20.1193 16.1193 19 17.5 19H36.5C37.8807 19 39 20.1193 39 21.5V30.5C39 31.8807 37.8807 33 36.5 33H17.5C16.1193 33 15 31.8807 15 30.5V21.5Z" fill="var(--fill-0, #F24E1E)"/>
<g id="FIG">
<path id="Vector" d="M30.9205 29.596C30.4938 29.596 30.0991 29.5187 29.7365 29.364C29.3738 29.2093 29.0565 28.9933 28.7845 28.716C28.5125 28.4387 28.2991 28.1133 28.1445 27.74C27.9951 27.3667 27.9205 26.9587 27.9205 26.516C27.9205 26.0733 27.9925 25.6653 28.1365 25.292C28.2858 24.9133 28.4938 24.588 28.7605 24.316C29.0325 24.0387 29.3498 23.8253 29.7125 23.676C30.0751 23.5213 30.4698 23.444 30.8965 23.444C31.3231 23.444 31.7045 23.516 32.0405 23.66C32.3818 23.804 32.6698 23.996 32.9045 24.236C33.1391 24.4707 33.3071 24.7293 33.4085 25.012L32.4405 25.476C32.3285 25.1667 32.1391 24.916 31.8725 24.724C31.6058 24.532 31.2805 24.436 30.8965 24.436C30.5231 24.436 30.1925 24.524 29.9045 24.7C29.6218 24.876 29.4005 25.1187 29.2405 25.428C29.0858 25.7373 29.0085 26.1 29.0085 26.516C29.0085 26.932 29.0885 27.2973 29.2485 27.612C29.4138 27.9213 29.6405 28.164 29.9285 28.34C30.2165 28.516 30.5471 28.604 30.9205 28.604C31.2245 28.604 31.5045 28.5453 31.7605 28.428C32.0165 28.3053 32.2218 28.1347 32.3765 27.916C32.5311 27.692 32.6085 27.428 32.6085 27.124V26.668L33.1045 27.1H30.8965V26.18H33.6965V26.78C33.6965 27.2387 33.6191 27.644 33.4645 27.996C33.3098 28.348 33.0991 28.644 32.8325 28.884C32.5711 29.1187 32.2751 29.2973 31.9445 29.42C31.6138 29.5373 31.2725 29.596 30.9205 29.596Z" fill="var(--fill-0, white)"/>
<path id="Vector_2" d="M25.8221 29.5V23.54H26.9101V29.5H25.8221Z" fill="var(--fill-0, white)"/>
<path id="Vector_3" d="M21.0946 29.5V23.54H25.0706V24.5H22.1826V26.148H24.7106V27.108H22.1826V29.5H21.0946Z" fill="var(--fill-0, white)"/>
</g>
</g>
</svg>
