<svg preserveAspectRatio="none" width="100%" height="100%" overflow="visible" style="display: block;" viewBox="0 0 39 40" fill="none" xmlns="http://www.w3.org/2000/svg">
<g id="Group 381">
<g id="Subtract">
<path fill-rule="evenodd" clip-rule="evenodd" d="M26.3431 2.34315C24.8429 0.842855 22.808 0 20.6863 0H8C3.58172 0 0 3.58172 0 8V32C0 36.4183 3.58172 40 8 40H28C32.4183 40 36 36.4183 36 32V15.3137C36 13.192 35.1571 11.1571 33.6569 9.65685L26.3431 2.34315Z" fill="var(--fill-0, #36CA6C)"/>
<path fill-rule="evenodd" clip-rule="evenodd" d="M26.3431 2.34315C24.8429 0.842855 22.808 0 20.6863 0H8C3.58172 0 0 3.58172 0 8V32C0 36.4183 3.58172 40 8 40H28C32.4183 40 36 36.4183 36 32V15.3137C36 13.192 35.1571 11.1571 33.6569 9.65685L26.3431 2.34315Z" fill="var(--fill-1, white)" fill-opacity="0.8"/>
</g>
<path id="Intersect" fill-rule="evenodd" clip-rule="evenodd" d="M24 0.718506C24.8639 1.11164 25.6591 1.65903 26.3431 2.34309L33.6569 9.6568C33.6571 9.65703 33.6573 9.65725 33.6575 9.65748C34.3413 10.3414 34.8884 11.1363 35.2814 11.9999H29C26.2386 11.9999 24 9.76137 24 6.99995V0.718506Z" fill="var(--fill-0, #36CA6C)"/>
<path id="Rectangle 61" d="M15 21.5C15 20.1193 16.1193 19 17.5 19H36.5C37.8807 19 39 20.1193 39 21.5V30.5C39 31.8807 37.8807 33 36.5 33H17.5C16.1193 33 15 31.8807 15 30.5V21.5Z" fill="var(--fill-0, #36CA6C)"/>
<g id="GIF">
<path id="Vector" d="M29.8699 29.5V23.54H33.8459V24.5H30.9579V26.148H33.4859V27.108H30.9579V29.5H29.8699Z" fill="var(--fill-0, white)"/>
<path id="Vector_2" d="M27.5955 29.5V23.54H28.6835V29.5H27.5955Z" fill="var(--fill-0, white)"/>
<path id="Vector_3" d="M23.9186 29.596C23.4919 29.596 23.0973 29.5187 22.7346 29.364C22.3719 29.2093 22.0546 28.9933 21.7826 28.716C21.5106 28.4387 21.2973 28.1133 21.1426 27.74C20.9933 27.3667 20.9186 26.9587 20.9186 26.516C20.9186 26.0733 20.9906 25.6653 21.1346 25.292C21.2839 24.9133 21.4919 24.588 21.7586 24.316C22.0306 24.0387 22.3479 23.8253 22.7106 23.676C23.0733 23.5213 23.4679 23.444 23.8946 23.444C24.3213 23.444 24.7026 23.516 25.0386 23.66C25.3799 23.804 25.6679 23.996 25.9026 24.236C26.1373 24.4707 26.3053 24.7293 26.4066 25.012L25.4386 25.476C25.3266 25.1667 25.1373 24.916 24.8706 24.724C24.6039 24.532 24.2786 24.436 23.8946 24.436C23.5213 24.436 23.1906 24.524 22.9026 24.7C22.6199 24.876 22.3986 25.1187 22.2386 25.428C22.0839 25.7373 22.0066 26.1 22.0066 26.516C22.0066 26.932 22.0866 27.2973 22.2466 27.612C22.4119 27.9213 22.6386 28.164 22.9266 28.34C23.2146 28.516 23.5453 28.604 23.9186 28.604C24.2226 28.604 24.5026 28.5453 24.7586 28.428C25.0146 28.3053 25.2199 28.1347 25.3746 27.916C25.5293 27.692 25.6066 27.428 25.6066 27.124V26.668L26.1026 27.1H23.8946V26.18H26.6946V26.78C26.6946 27.2387 26.6173 27.644 26.4626 27.996C26.3079 28.348 26.0973 28.644 25.8306 28.884C25.5693 29.1187 25.2733 29.2973 24.9426 29.42C24.6119 29.5373 24.2706 29.596 23.9186 29.596Z" fill="var(--fill-0, white)"/>
</g>
</g>
</svg>
