<svg preserveAspectRatio="none" width="100%" height="100%" overflow="visible" style="display: block;" viewBox="0 0 39 40" fill="none" xmlns="http://www.w3.org/2000/svg">
<g id="Group 381">
<g id="Subtract">
<path fill-rule="evenodd" clip-rule="evenodd" d="M26.3431 2.34315C24.8429 0.842855 22.808 0 20.6863 0H8C3.58172 0 0 3.58172 0 8V32C0 36.4183 3.58172 40 8 40H28C32.4183 40 36 36.4183 36 32V15.3137C36 13.192 35.1571 11.1571 33.6569 9.65685L26.3431 2.34315Z" fill="var(--fill-0, #2DD4BF)"/>
<path fill-rule="evenodd" clip-rule="evenodd" d="M26.3431 2.34315C24.8429 0.842855 22.808 0 20.6863 0H8C3.58172 0 0 3.58172 0 8V32C0 36.4183 3.58172 40 8 40H28C32.4183 40 36 36.4183 36 32V15.3137C36 13.192 35.1571 11.1571 33.6569 9.65685L26.3431 2.34315Z" fill="var(--fill-1, white)" fill-opacity="0.8"/>
</g>
<path id="Intersect" fill-rule="evenodd" clip-rule="evenodd" d="M24 0.718506C24.8639 1.11164 25.6591 1.65903 26.3431 2.34309L33.6569 9.6568C33.6571 9.65703 33.6573 9.65725 33.6575 9.65748C34.3413 10.3414 34.8884 11.1363 35.2814 11.9999H29C26.2386 11.9999 24 9.76137 24 6.99995V0.718506Z" fill="var(--fill-0, #2DD4BF)"/>
<path id="Rectangle 61" d="M15 21.5C15 20.1193 16.1193 19 17.5 19H36.5C37.8807 19 39 20.1193 39 21.5V30.5C39 31.8807 37.8807 33 36.5 33H17.5C16.1193 33 15 31.8807 15 30.5V21.5Z" fill="var(--fill-0, #2DD4BF)"/>
<g id="MKV">
<path id="Vector" d="M32.9541 29.5L30.8741 23.54H32.0581L33.6901 28.476H33.4581L35.0901 23.54H36.2741L34.2021 29.5H32.9541Z" fill="var(--fill-0, white)"/>
<path id="Vector_2" d="M25.8924 29.5V23.54H26.9804V26.644L26.6844 26.54L29.2204 23.54H30.5884L28.2124 26.356L28.2764 25.588L30.6604 29.5H29.3804L27.7804 26.876L26.9804 27.828V29.5H25.8924Z" fill="var(--fill-0, white)"/>
<path id="Vector_3" d="M18.7118 29.5V23.54H19.7518L21.9838 26.572H21.4878L23.6718 23.54H24.7118V29.5H23.6158V24.78L24.0398 24.884L21.7758 27.9H21.6478L19.4398 24.884L19.7998 24.78V29.5H18.7118Z" fill="var(--fill-0, white)"/>
</g>
</g>
</svg>
