<svg preserveAspectRatio="none" width="100%" height="100%" overflow="visible" style="display: block;" viewBox="0 0 39 40" fill="none" xmlns="http://www.w3.org/2000/svg">
<g id="Group 381">
<g id="Subtract">
<path fill-rule="evenodd" clip-rule="evenodd" d="M26.3431 2.34315C24.8429 0.842855 22.808 0 20.6863 0H8C3.58172 0 0 3.58172 0 8V32C0 36.4183 3.58172 40 8 40H28C32.4183 40 36 36.4183 36 32V15.3137C36 13.192 35.1571 11.1571 33.6569 9.65685L26.3431 2.34315Z" fill="var(--fill-0, #9333EA)"/>
<path fill-rule="evenodd" clip-rule="evenodd" d="M26.3431 2.34315C24.8429 0.842855 22.808 0 20.6863 0H8C3.58172 0 0 3.58172 0 8V32C0 36.4183 3.58172 40 8 40H28C32.4183 40 36 36.4183 36 32V15.3137C36 13.192 35.1571 11.1571 33.6569 9.65685L26.3431 2.34315Z" fill="var(--fill-1, white)" fill-opacity="0.8"/>
</g>
<path id="Intersect" fill-rule="evenodd" clip-rule="evenodd" d="M24 0.718506C24.8639 1.11164 25.6591 1.65903 26.3431 2.34309L33.6569 9.6568C33.6571 9.65703 33.6573 9.65725 33.6575 9.65748C34.3413 10.3414 34.8884 11.1363 35.2814 11.9999H29C26.2386 11.9999 24 9.76137 24 6.99995V0.718506Z" fill="var(--fill-0, #9333EA)"/>
<path id="Rectangle 61" d="M15 21.5C15 20.1193 16.1193 19 17.5 19H36.5C37.8807 19 39 20.1193 39 21.5V30.5C39 31.8807 37.8807 33 36.5 33H17.5C16.1193 33 15 31.8807 15 30.5V21.5Z" fill="var(--fill-0, #9333EA)"/>
<g id="MOV">
<path id="Vector" d="M33.4228 29.5L31.3428 23.54H32.5268L34.1588 28.476H33.9268L35.5588 23.54H36.7428L34.6708 29.5H33.4228Z" fill="var(--fill-0, white)"/>
<path id="Vector_2" d="M27.8597 29.596C27.4223 29.596 27.0143 29.5187 26.6357 29.364C26.257 29.2093 25.9263 28.9933 25.6437 28.716C25.361 28.4387 25.1397 28.1133 24.9797 27.74C24.825 27.3613 24.7477 26.9533 24.7477 26.516C24.7477 26.0733 24.825 25.6653 24.9797 25.292C25.1343 24.9187 25.353 24.5933 25.6357 24.316C25.9183 24.0387 26.249 23.8253 26.6277 23.676C27.0063 23.5213 27.417 23.444 27.8597 23.444C28.3023 23.444 28.713 23.5213 29.0917 23.676C29.4703 23.8307 29.801 24.0467 30.0837 24.324C30.3663 24.596 30.585 24.9187 30.7397 25.292C30.8997 25.6653 30.9797 26.0733 30.9797 26.516C30.9797 26.9533 30.8997 27.3613 30.7397 27.74C30.5797 28.1133 30.3583 28.4387 30.0757 28.716C29.793 28.9933 29.4623 29.2093 29.0837 29.364C28.7103 29.5187 28.3023 29.596 27.8597 29.596ZM27.8597 28.604C28.153 28.604 28.4223 28.5533 28.6677 28.452C28.913 28.3453 29.1263 28.1987 29.3077 28.012C29.4943 27.8253 29.6357 27.604 29.7317 27.348C29.833 27.092 29.8837 26.8147 29.8837 26.516C29.8837 26.2173 29.833 25.9427 29.7317 25.692C29.6357 25.436 29.4943 25.2147 29.3077 25.028C29.1263 24.836 28.913 24.6893 28.6677 24.588C28.4223 24.4867 28.153 24.436 27.8597 24.436C27.5717 24.436 27.305 24.4867 27.0597 24.588C26.8143 24.6893 26.5983 24.836 26.4117 25.028C26.2303 25.2147 26.089 25.436 25.9877 25.692C25.8863 25.9427 25.8357 26.2173 25.8357 26.516C25.8357 26.8147 25.8863 27.092 25.9877 27.348C26.089 27.604 26.2303 27.8253 26.4117 28.012C26.5983 28.1987 26.8143 28.3453 27.0597 28.452C27.305 28.5533 27.5717 28.604 27.8597 28.604Z" fill="var(--fill-0, white)"/>
<path id="Vector_3" d="M17.743 29.5V23.54H18.783L21.015 26.572H20.519L22.703 23.54H23.743V29.5H22.647V24.78L23.071 24.884L20.807 27.9H20.679L18.471 24.884L18.831 24.78V29.5H17.743Z" fill="var(--fill-0, white)"/>
</g>
</g>
</svg>
