<svg preserveAspectRatio="none" width="100%" height="100%" overflow="visible" style="display: block;" viewBox="0 0 39 40" fill="none" xmlns="http://www.w3.org/2000/svg">
<g id="Group 381">
<g id="Subtract">
<path fill-rule="evenodd" clip-rule="evenodd" d="M26.3431 2.34315C24.8429 0.842855 22.808 0 20.6863 0H8C3.58172 0 0 3.58172 0 8V32C0 36.4183 3.58172 40 8 40H28C32.4183 40 36 36.4183 36 32V15.3137C36 13.192 35.1571 11.1571 33.6569 9.65685L26.3431 2.34315Z" fill="var(--fill-0, #9333EA)"/>
<path fill-rule="evenodd" clip-rule="evenodd" d="M26.3431 2.34315C24.8429 0.842855 22.808 0 20.6863 0H8C3.58172 0 0 3.58172 0 8V32C0 36.4183 3.58172 40 8 40H28C32.4183 40 36 36.4183 36 32V15.3137C36 13.192 35.1571 11.1571 33.6569 9.65685L26.3431 2.34315Z" fill="var(--fill-1, white)" fill-opacity="0.8"/>
</g>
<path id="Intersect" fill-rule="evenodd" clip-rule="evenodd" d="M24 0.718506C24.8639 1.11164 25.6591 1.65903 26.3431 2.34309L33.6569 9.6568C33.6571 9.65703 33.6573 9.65725 33.6575 9.65748C34.3413 10.3414 34.8884 11.1363 35.2814 11.9999H29C26.2386 11.9999 24 9.76137 24 6.99995V0.718506Z" fill="var(--fill-0, #9333EA)"/>
<path id="Rectangle 61" d="M15 21.5C15 20.1193 16.1193 19 17.5 19H36.5C37.8807 19 39 20.1193 39 21.5V30.5C39 31.8807 37.8807 33 36.5 33H17.5C16.1193 33 15 31.8807 15 30.5V21.5Z" fill="var(--fill-0, #9333EA)"/>
<g id="PNG">
<path id="Vector" d="M32.7681 29.596C32.3415 29.596 31.9468 29.5187 31.5841 29.364C31.2215 29.2093 30.9041 28.9933 30.6321 28.716C30.3601 28.4387 30.1468 28.1133 29.9921 27.74C29.8428 27.3667 29.7681 26.9587 29.7681 26.516C29.7681 26.0733 29.8401 25.6653 29.9841 25.292C30.1335 24.9133 30.3415 24.588 30.6081 24.316C30.8801 24.0387 31.1975 23.8253 31.5601 23.676C31.9228 23.5213 32.3175 23.444 32.7441 23.444C33.1708 23.444 33.5521 23.516 33.8881 23.66C34.2295 23.804 34.5175 23.996 34.7521 24.236C34.9868 24.4707 35.1548 24.7293 35.2561 25.012L34.2881 25.476C34.1761 25.1667 33.9868 24.916 33.7201 24.724C33.4535 24.532 33.1281 24.436 32.7441 24.436C32.3708 24.436 32.0401 24.524 31.7521 24.7C31.4695 24.876 31.2481 25.1187 31.0881 25.428C30.9335 25.7373 30.8561 26.1 30.8561 26.516C30.8561 26.932 30.9361 27.2973 31.0961 27.612C31.2615 27.9213 31.4881 28.164 31.7761 28.34C32.0641 28.516 32.3948 28.604 32.7681 28.604C33.0721 28.604 33.3521 28.5453 33.6081 28.428C33.8641 28.3053 34.0695 28.1347 34.2241 27.916C34.3788 27.692 34.4561 27.428 34.4561 27.124V26.668L34.9521 27.1H32.7441V26.18H35.5441V26.78C35.5441 27.2387 35.4668 27.644 35.3121 27.996C35.1575 28.348 34.9468 28.644 34.6801 28.884C34.4188 29.1187 34.1228 29.2973 33.7921 29.42C33.4615 29.5373 33.1201 29.596 32.7681 29.596Z" fill="var(--fill-0, white)"/>
<path id="Vector_2" d="M23.9744 29.5V23.54H24.8224L28.1024 27.956L27.6624 28.044V23.54H28.7504V29.5H27.8944L24.6624 25.052L25.0624 24.964V29.5H23.9744Z" fill="var(--fill-0, white)"/>
<path id="Vector_3" d="M18.7469 29.5V23.54H20.9709C21.3763 23.54 21.7336 23.6147 22.0429 23.764C22.3576 23.908 22.6029 24.1213 22.7789 24.404C22.9549 24.6813 23.0429 25.02 23.0429 25.42C23.0429 25.8147 22.9523 26.1533 22.7709 26.436C22.5949 26.7133 22.3523 26.9267 22.0429 27.076C21.7336 27.2253 21.3763 27.3 20.9709 27.3H19.8349V29.5H18.7469ZM19.8349 26.34H20.9869C21.1843 26.34 21.3549 26.3027 21.4989 26.228C21.6429 26.148 21.7549 26.0387 21.8349 25.9C21.9149 25.7613 21.9549 25.6013 21.9549 25.42C21.9549 25.2333 21.9149 25.0733 21.8349 24.94C21.7549 24.8013 21.6429 24.6947 21.4989 24.62C21.3549 24.54 21.1843 24.5 20.9869 24.5H19.8349V26.34Z" fill="var(--fill-0, white)"/>
</g>
</g>
</svg>
