<svg preserveAspectRatio="none" width="100%" height="100%" overflow="visible" style="display: block;" viewBox="0 0 39 40" fill="none" xmlns="http://www.w3.org/2000/svg">
<g id="Group 381">
<g id="Subtract">
<path fill-rule="evenodd" clip-rule="evenodd" d="M26.3431 2.34315C24.8429 0.842855 22.808 0 20.6863 0H8C3.58172 0 0 3.58172 0 8V32C0 36.4183 3.58172 40 8 40H28C32.4183 40 36 36.4183 36 32V15.3137C36 13.192 35.1571 11.1571 33.6569 9.65685L26.3431 2.34315Z" fill="var(--fill-0, #10B981)"/>
<path fill-rule="evenodd" clip-rule="evenodd" d="M26.3431 2.34315C24.8429 0.842855 22.808 0 20.6863 0H8C3.58172 0 0 3.58172 0 8V32C0 36.4183 3.58172 40 8 40H28C32.4183 40 36 36.4183 36 32V15.3137C36 13.192 35.1571 11.1571 33.6569 9.65685L26.3431 2.34315Z" fill="var(--fill-1, white)" fill-opacity="0.8"/>
</g>
<path id="Intersect" fill-rule="evenodd" clip-rule="evenodd" d="M24 0.718506C24.8639 1.11164 25.6591 1.65903 26.3431 2.34309L33.6569 9.6568C33.6571 9.65703 33.6573 9.65725 33.6575 9.65748C34.3413 10.3414 34.8884 11.1363 35.2814 11.9999H29C26.2386 11.9999 24 9.76137 24 6.99995V0.718506Z" fill="var(--fill-0, #10B981)"/>
<path id="Rectangle 61" d="M15 21.5C15 20.1193 16.1193 19 17.5 19H36.5C37.8807 19 39 20.1193 39 21.5V30.5C39 31.8807 37.8807 33 36.5 33H17.5C16.1193 33 15 31.8807 15 30.5V21.5Z" fill="var(--fill-0, #10B981)"/>
<g id="XLS">
<path id="Vector" d="M31.9706 29.596C31.5919 29.596 31.2399 29.5267 30.9146 29.388C30.5946 29.2493 30.3172 29.0573 30.0826 28.812C29.8532 28.5613 29.6852 28.2707 29.5786 27.94L30.4826 27.548C30.6266 27.8893 30.8346 28.1587 31.1066 28.356C31.3786 28.548 31.6852 28.644 32.0266 28.644C32.2186 28.644 32.3839 28.6147 32.5226 28.556C32.6666 28.492 32.7759 28.4067 32.8506 28.3C32.9306 28.1933 32.9706 28.0653 32.9706 27.916C32.9706 27.74 32.9172 27.596 32.8106 27.484C32.7092 27.3667 32.5546 27.276 32.3466 27.212L31.2026 26.844C30.7386 26.7 30.3892 26.484 30.1546 26.196C29.9199 25.908 29.8026 25.5693 29.8026 25.18C29.8026 24.8387 29.8852 24.5373 30.0506 24.276C30.2212 24.0147 30.4559 23.812 30.7546 23.668C31.0586 23.5187 31.4052 23.444 31.7946 23.444C32.1519 23.444 32.4799 23.508 32.7786 23.636C33.0772 23.7587 33.3332 23.932 33.5466 24.156C33.7652 24.3747 33.9279 24.6333 34.0346 24.932L33.1386 25.332C33.0212 25.0333 32.8452 24.804 32.6106 24.644C32.3759 24.4787 32.1039 24.396 31.7946 24.396C31.6132 24.396 31.4532 24.428 31.3146 24.492C31.1759 24.5507 31.0666 24.636 30.9866 24.748C30.9119 24.8547 30.8746 24.9827 30.8746 25.132C30.8746 25.2973 30.9279 25.444 31.0346 25.572C31.1412 25.6947 31.3039 25.7907 31.5226 25.86L32.6186 26.204C33.0932 26.3587 33.4479 26.572 33.6826 26.844C33.9226 27.116 34.0426 27.452 34.0426 27.852C34.0426 28.1933 33.9546 28.4947 33.7786 28.756C33.6026 29.0173 33.3599 29.2227 33.0506 29.372C32.7412 29.5213 32.3812 29.596 31.9706 29.596Z" fill="var(--fill-0, white)"/>
<path id="Vector_2" d="M25.4588 29.5V23.54H26.5468V28.54H29.0988V29.5H25.4588Z" fill="var(--fill-0, white)"/>
<path id="Vector_3" d="M19.6418 29.5L21.5938 26.5L19.6578 23.54H20.9058L22.4898 25.964H21.9138L23.4898 23.54H24.7378L22.8098 26.5L24.7538 29.5H23.5058L21.9138 27.044H22.4898L20.8898 29.5H19.6418Z" fill="var(--fill-0, white)"/>
</g>
</g>
</svg>
