<svg preserveAspectRatio="none" width="100%" height="100%" overflow="visible" style="display: block;" viewBox="0 0 39 40" fill="none" xmlns="http://www.w3.org/2000/svg">
<g id="Group 381">
<g id="Subtract">
<path fill-rule="evenodd" clip-rule="evenodd" d="M26.3431 2.34315C24.8429 0.842855 22.808 0 20.6863 0H8C3.58172 0 0 3.58172 0 8V32C0 36.4183 3.58172 40 8 40H28C32.4183 40 36 36.4183 36 32V15.3137C36 13.192 35.1571 11.1571 33.6569 9.65685L26.3431 2.34315Z" fill="var(--fill-0, #0D894F)"/>
<path fill-rule="evenodd" clip-rule="evenodd" d="M26.3431 2.34315C24.8429 0.842855 22.808 0 20.6863 0H8C3.58172 0 0 3.58172 0 8V32C0 36.4183 3.58172 40 8 40H28C32.4183 40 36 36.4183 36 32V15.3137C36 13.192 35.1571 11.1571 33.6569 9.65685L26.3431 2.34315Z" fill="var(--fill-1, white)" fill-opacity="0.8"/>
</g>
<path id="Intersect" fill-rule="evenodd" clip-rule="evenodd" d="M24 0.718506C24.8639 1.11164 25.6591 1.65903 26.3431 2.34309L33.6569 9.6568C33.6571 9.65703 33.6573 9.65725 33.6575 9.65748C34.3413 10.3414 34.8884 11.1363 35.2814 11.9999H29C26.2386 11.9999 24 9.76137 24 6.99995V0.718506Z" fill="var(--fill-0, #0D894F)"/>
<path id="Rectangle 61" d="M15 21.5C15 20.1193 16.1193 19 17.5 19H36.5C37.8807 19 39 20.1193 39 21.5V30.5C39 31.8807 37.8807 33 36.5 33H17.5C16.1193 33 15 31.8807 15 30.5V21.5Z" fill="var(--fill-0, #0D894F)"/>
<g id="EPS">
<path id="Vector" d="M32.3768 29.596C31.9981 29.596 31.6461 29.5267 31.3208 29.388C31.0008 29.2493 30.7235 29.0573 30.4888 28.812C30.2595 28.5613 30.0915 28.2707 29.9848 27.94L30.8888 27.548C31.0328 27.8893 31.2408 28.1587 31.5128 28.356C31.7848 28.548 32.0915 28.644 32.4328 28.644C32.6248 28.644 32.7901 28.6147 32.9288 28.556C33.0728 28.492 33.1821 28.4067 33.2568 28.3C33.3368 28.1933 33.3768 28.0653 33.3768 27.916C33.3768 27.74 33.3235 27.596 33.2168 27.484C33.1155 27.3667 32.9608 27.276 32.7528 27.212L31.6088 26.844C31.1448 26.7 30.7955 26.484 30.5608 26.196C30.3261 25.908 30.2088 25.5693 30.2088 25.18C30.2088 24.8387 30.2915 24.5373 30.4568 24.276C30.6275 24.0147 30.8621 23.812 31.1608 23.668C31.4648 23.5187 31.8115 23.444 32.2008 23.444C32.5581 23.444 32.8861 23.508 33.1848 23.636C33.4835 23.7587 33.7395 23.932 33.9528 24.156C34.1715 24.3747 34.3341 24.6333 34.4408 24.932L33.5448 25.332C33.4275 25.0333 33.2515 24.804 33.0168 24.644C32.7821 24.4787 32.5101 24.396 32.2008 24.396C32.0195 24.396 31.8595 24.428 31.7208 24.492C31.5821 24.5507 31.4728 24.636 31.3928 24.748C31.3181 24.8547 31.2808 24.9827 31.2808 25.132C31.2808 25.2973 31.3341 25.444 31.4408 25.572C31.5475 25.6947 31.7101 25.7907 31.9288 25.86L33.0248 26.204C33.4995 26.3587 33.8541 26.572 34.0888 26.844C34.3288 27.116 34.4488 27.452 34.4488 27.852C34.4488 28.1933 34.3608 28.4947 34.1848 28.756C34.0088 29.0173 33.7661 29.2227 33.4568 29.372C33.1475 29.5213 32.7875 29.596 32.3768 29.596Z" fill="var(--fill-0, white)"/>
<path id="Vector_2" d="M25.0213 29.5V23.54H27.2453C27.6506 23.54 28.008 23.6147 28.3173 23.764C28.632 23.908 28.8773 24.1213 29.0533 24.404C29.2293 24.6813 29.3173 25.02 29.3173 25.42C29.3173 25.8147 29.2266 26.1533 29.0453 26.436C28.8693 26.7133 28.6266 26.9267 28.3173 27.076C28.008 27.2253 27.6506 27.3 27.2453 27.3H26.1093V29.5H25.0213ZM26.1093 26.34H27.2613C27.4586 26.34 27.6293 26.3027 27.7733 26.228C27.9173 26.148 28.0293 26.0387 28.1093 25.9C28.1893 25.7613 28.2293 25.6013 28.2293 25.42C28.2293 25.2333 28.1893 25.0733 28.1093 24.94C28.0293 24.8013 27.9173 24.6947 27.7733 24.62C27.6293 24.54 27.4586 24.5 27.2613 24.5H26.1093V26.34Z" fill="var(--fill-0, white)"/>
<path id="Vector_3" d="M20.2235 29.5V23.54H24.1835V24.5H21.3115V26.028H24.0235V26.988H21.3115V28.54H24.1835V29.5H20.2235Z" fill="var(--fill-0, white)"/>
</g>
</g>
</svg>
