<svg width="48" height="48" viewBox="0 0 48 48" fill="none" xmlns="http://www.w3.org/2000/svg">
<path d="M4.5 15.5C4.5 11.0817 8.08172 7.5 12.5 7.5H31.5C35.9183 7.5 39.5 11.0817 39.5 15.5V35C39.5 39.4183 35.9183 43 31.5 43H12.5C8.08172 43 4.5 39.4183 4.5 35V15.5Z" fill="#FEB923"/>
<path d="M4.5 15.5C4.5 11.0817 8.08172 7.5 12.5 7.5H31.5C35.9183 7.5 39.5 11.0817 39.5 15.5V35C39.5 39.4183 35.9183 43 31.5 43H12.5C8.08172 43 4.5 39.4183 4.5 35V15.5Z" fill="black" fill-opacity="0.2"/>
<path d="M4.5 13C4.5 8.58172 8.08172 5 12.5 5H17.0589C19.2557 5 21.3558 5.90331 22.8666 7.49804L25.5 10.2778H35.5C39.9183 10.2778 43.5 13.8595 43.5 18.2778V35C43.5 39.4183 39.9183 43 35.5 43H12.5C8.08172 43 4.5 39.4183 4.5 35V13Z" fill="#FEB923"/>
</svg>
