<svg preserveAspectRatio="none" width="100%" height="100%" overflow="visible" style="display: block;" viewBox="0 0 39 40" fill="none" xmlns="http://www.w3.org/2000/svg">
<g id="Group 381">
<g id="Subtract">
<path fill-rule="evenodd" clip-rule="evenodd" d="M26.3431 2.34315C24.8429 0.842855 22.808 0 20.6863 0H8C3.58172 0 0 3.58172 0 8V32C0 36.4183 3.58172 40 8 40H28C32.4183 40 36 36.4183 36 32V15.3137C36 13.192 35.1571 11.1571 33.6569 9.65685L26.3431 2.34315Z" fill="var(--fill-0, #F97316)"/>
<path fill-rule="evenodd" clip-rule="evenodd" d="M26.3431 2.34315C24.8429 0.842855 22.808 0 20.6863 0H8C3.58172 0 0 3.58172 0 8V32C0 36.4183 3.58172 40 8 40H28C32.4183 40 36 36.4183 36 32V15.3137C36 13.192 35.1571 11.1571 33.6569 9.65685L26.3431 2.34315Z" fill="var(--fill-1, white)" fill-opacity="0.8"/>
</g>
<path id="Intersect" fill-rule="evenodd" clip-rule="evenodd" d="M24 0.718506C24.8639 1.11164 25.6591 1.65903 26.3431 2.34309L33.6569 9.6568C33.6571 9.65703 33.6573 9.65725 33.6575 9.65748C34.3413 10.3414 34.8884 11.1363 35.2814 11.9999H29C26.2386 11.9999 24 9.76137 24 6.99995V0.718506Z" fill="var(--fill-0, #F97316)"/>
<path id="Rectangle 61" d="M15 21.5C15 20.1193 16.1193 19 17.5 19H36.5C37.8807 19 39 20.1193 39 21.5V30.5C39 31.8807 37.8807 33 36.5 33H17.5C16.1193 33 15 31.8807 15 30.5V21.5Z" fill="var(--fill-0, #F97316)"/>
<g id="PPT">
<path id="Vector" d="M31.6915 29.5V24.5H30.1475V23.54H34.3075V24.5H32.7875V29.5H31.6915Z" fill="var(--fill-0, white)"/>
<path id="Vector_2" d="M25.408 29.5V23.54H27.632C28.0374 23.54 28.3947 23.6147 28.704 23.764C29.0187 23.908 29.264 24.1213 29.44 24.404C29.616 24.6813 29.704 25.02 29.704 25.42C29.704 25.8147 29.6134 26.1533 29.432 26.436C29.256 26.7133 29.0134 26.9267 28.704 27.076C28.3947 27.2253 28.0374 27.3 27.632 27.3H26.496V29.5H25.408ZM26.496 26.34H27.648C27.8454 26.34 28.016 26.3027 28.16 26.228C28.304 26.148 28.416 26.0387 28.496 25.9C28.576 25.7613 28.616 25.6013 28.616 25.42C28.616 25.2333 28.576 25.0733 28.496 24.94C28.416 24.8013 28.304 24.6947 28.16 24.62C28.016 24.54 27.8454 24.5 27.648 24.5H26.496V26.34Z" fill="var(--fill-0, white)"/>
<path id="Vector_3" d="M20.1805 29.5V23.54H22.4045C22.8099 23.54 23.1672 23.6147 23.4765 23.764C23.7912 23.908 24.0365 24.1213 24.2125 24.404C24.3885 24.6813 24.4765 25.02 24.4765 25.42C24.4765 25.8147 24.3859 26.1533 24.2045 26.436C24.0285 26.7133 23.7859 26.9267 23.4765 27.076C23.1672 27.2253 22.8099 27.3 22.4045 27.3H21.2685V29.5H20.1805ZM21.2685 26.34H22.4205C22.6179 26.34 22.7885 26.3027 22.9325 26.228C23.0765 26.148 23.1885 26.0387 23.2685 25.9C23.3485 25.7613 23.3885 25.6013 23.3885 25.42C23.3885 25.2333 23.3485 25.0733 23.2685 24.94C23.1885 24.8013 23.0765 24.6947 22.9325 24.62C22.7885 24.54 22.6179 24.5 22.4205 24.5H21.2685V26.34Z" fill="var(--fill-0, white)"/>
</g>
</g>
</svg>
