<svg preserveAspectRatio="none" width="100%" height="100%" overflow="visible" style="display: block;" viewBox="0 0 39 40" fill="none" xmlns="http://www.w3.org/2000/svg">
<g id="Group 381">
<g id="Subtract">
<path fill-rule="evenodd" clip-rule="evenodd" d="M26.3431 2.34315C24.8429 0.842855 22.808 0 20.6863 0H8C3.58172 0 0 3.58172 0 8V32C0 36.4183 3.58172 40 8 40H28C32.4183 40 36 36.4183 36 32V15.3137C36 13.192 35.1571 11.1571 33.6569 9.65685L26.3431 2.34315Z" fill="var(--fill-0, #2E4EB5)"/>
<path fill-rule="evenodd" clip-rule="evenodd" d="M26.3431 2.34315C24.8429 0.842855 22.808 0 20.6863 0H8C3.58172 0 0 3.58172 0 8V32C0 36.4183 3.58172 40 8 40H28C32.4183 40 36 36.4183 36 32V15.3137C36 13.192 35.1571 11.1571 33.6569 9.65685L26.3431 2.34315Z" fill="var(--fill-1, white)" fill-opacity="0.8"/>
</g>
<path id="Intersect" fill-rule="evenodd" clip-rule="evenodd" d="M24 0.718506C24.8639 1.11164 25.6591 1.65903 26.3431 2.34309L33.6569 9.6568C33.6571 9.65703 33.6573 9.65725 33.6575 9.65748C34.3413 10.3414 34.8884 11.1363 35.2814 11.9999H29C26.2386 11.9999 24 9.76137 24 6.99995V0.718506Z" fill="var(--fill-0, #2E4EB5)"/>
<path id="Rectangle 61" d="M15 21.5C15 20.1193 16.1193 19 17.5 19H36.5C37.8807 19 39 20.1193 39 21.5V30.5C39 31.8807 37.8807 33 36.5 33H17.5C16.1193 33 15 31.8807 15 30.5V21.5Z" fill="var(--fill-0, #2E4EB5)"/>
<g id="PSD">
<path id="Vector" d="M30.0887 29.5V23.54H32.0327C32.662 23.54 33.2087 23.668 33.6727 23.924C34.142 24.1747 34.5047 24.524 34.7607 24.972C35.0167 25.4147 35.1447 25.9293 35.1447 26.516C35.1447 27.0973 35.0167 27.6147 34.7607 28.068C34.5047 28.516 34.142 28.868 33.6727 29.124C33.2087 29.3747 32.662 29.5 32.0327 29.5H30.0887ZM31.1767 28.54H32.0567C32.462 28.54 32.8113 28.4573 33.1047 28.292C33.4033 28.1213 33.6353 27.8867 33.8007 27.588C33.966 27.284 34.0487 26.9267 34.0487 26.516C34.0487 26.1 33.966 25.7427 33.8007 25.444C33.6353 25.1453 33.4033 24.9133 33.1047 24.748C32.8113 24.5827 32.462 24.5 32.0567 24.5H31.1767V28.54Z" fill="var(--fill-0, white)"/>
<path id="Vector_2" d="M26.997 29.596C26.6183 29.596 26.2663 29.5267 25.941 29.388C25.621 29.2493 25.3436 29.0573 25.109 28.812C24.8796 28.5613 24.7116 28.2707 24.605 27.94L25.509 27.548C25.653 27.8893 25.861 28.1587 26.133 28.356C26.405 28.548 26.7116 28.644 27.053 28.644C27.245 28.644 27.4103 28.6147 27.549 28.556C27.693 28.492 27.8023 28.4067 27.877 28.3C27.957 28.1933 27.997 28.0653 27.997 27.916C27.997 27.74 27.9436 27.596 27.837 27.484C27.7356 27.3667 27.581 27.276 27.373 27.212L26.229 26.844C25.765 26.7 25.4156 26.484 25.181 26.196C24.9463 25.908 24.829 25.5693 24.829 25.18C24.829 24.8387 24.9116 24.5373 25.077 24.276C25.2476 24.0147 25.4823 23.812 25.781 23.668C26.085 23.5187 26.4316 23.444 26.821 23.444C27.1783 23.444 27.5063 23.508 27.805 23.636C28.1036 23.7587 28.3596 23.932 28.573 24.156C28.7916 24.3747 28.9543 24.6333 29.061 24.932L28.165 25.332C28.0476 25.0333 27.8716 24.804 27.637 24.644C27.4023 24.4787 27.1303 24.396 26.821 24.396C26.6396 24.396 26.4796 24.428 26.341 24.492C26.2023 24.5507 26.093 24.636 26.013 24.748C25.9383 24.8547 25.901 24.9827 25.901 25.132C25.901 25.2973 25.9543 25.444 26.061 25.572C26.1676 25.6947 26.3303 25.7907 26.549 25.86L27.645 26.204C28.1196 26.3587 28.4743 26.572 28.709 26.844C28.949 27.116 29.069 27.452 29.069 27.852C29.069 28.1933 28.981 28.4947 28.805 28.756C28.629 29.0173 28.3863 29.2227 28.077 29.372C27.7676 29.5213 27.4076 29.596 26.997 29.596Z" fill="var(--fill-0, white)"/>
<path id="Vector_3" d="M19.6415 29.5V23.54H21.8655C22.2708 23.54 22.6281 23.6147 22.9375 23.764C23.2521 23.908 23.4975 24.1213 23.6735 24.404C23.8495 24.6813 23.9375 25.02 23.9375 25.42C23.9375 25.8147 23.8468 26.1533 23.6655 26.436C23.4895 26.7133 23.2468 26.9267 22.9375 27.076C22.6281 27.2253 22.2708 27.3 21.8655 27.3H20.7295V29.5H19.6415ZM20.7295 26.34H21.8815C22.0788 26.34 22.2495 26.3027 22.3935 26.228C22.5375 26.148 22.6495 26.0387 22.7295 25.9C22.8095 25.7613 22.8495 25.6013 22.8495 25.42C22.8495 25.2333 22.8095 25.0733 22.7295 24.94C22.6495 24.8013 22.5375 24.6947 22.3935 24.62C22.2495 24.54 22.0788 24.5 21.8815 24.5H20.7295V26.34Z" fill="var(--fill-0, white)"/>
</g>
</g>
</svg>
