<svg preserveAspectRatio="none" width="100%" height="100%" overflow="visible" style="display: block;" viewBox="0 0 39 40" fill="none" xmlns="http://www.w3.org/2000/svg">
<g id="Group 381">
<g id="Subtract">
<path fill-rule="evenodd" clip-rule="evenodd" d="M26.3431 2.34315C24.8429 0.842855 22.808 0 20.6863 0H8C3.58172 0 0 3.58172 0 8V32C0 36.4183 3.58172 40 8 40H28C32.4183 40 36 36.4183 36 32V15.3137C36 13.192 35.1571 11.1571 33.6569 9.65685L26.3431 2.34315Z" fill="var(--fill-0, #B44BA7)"/>
<path fill-rule="evenodd" clip-rule="evenodd" d="M26.3431 2.34315C24.8429 0.842855 22.808 0 20.6863 0H8C3.58172 0 0 3.58172 0 8V32C0 36.4183 3.58172 40 8 40H28C32.4183 40 36 36.4183 36 32V15.3137C36 13.192 35.1571 11.1571 33.6569 9.65685L26.3431 2.34315Z" fill="var(--fill-1, white)" fill-opacity="0.8"/>
</g>
<path id="Intersect" fill-rule="evenodd" clip-rule="evenodd" d="M24 0.718506C24.8639 1.11164 25.6591 1.65903 26.3431 2.34309L33.6569 9.6568C33.6571 9.65703 33.6573 9.65725 33.6575 9.65748C34.3413 10.3414 34.8884 11.1363 35.2814 11.9999H29C26.2386 11.9999 24 9.76137 24 6.99995V0.718506Z" fill="var(--fill-0, #B44BA7)"/>
<path id="Rectangle 61" d="M15 21.5C15 20.1193 16.1193 19 17.5 19H36.5C37.8807 19 39 20.1193 39 21.5V30.5C39 31.8807 37.8807 33 36.5 33H17.5C16.1193 33 15 31.8807 15 30.5V21.5Z" fill="var(--fill-0, #B44BA7)"/>
<g id="RAR">
<path id="Vector" d="M30.7137 29.5V23.54H32.9297C33.335 23.54 33.6923 23.6147 34.0017 23.764C34.3163 23.908 34.5617 24.1213 34.7377 24.404C34.9137 24.6813 35.0017 25.02 35.0017 25.42C35.0017 25.8307 34.903 26.18 34.7057 26.468C34.5137 26.756 34.2523 26.9693 33.9217 27.108L35.2897 29.5H34.0577L32.5937 26.884L33.2977 27.3H31.8017V29.5H30.7137ZM31.8017 26.34H32.9457C33.143 26.34 33.3137 26.3027 33.4577 26.228C33.6017 26.148 33.7137 26.0387 33.7937 25.9C33.8737 25.7613 33.9137 25.6013 33.9137 25.42C33.9137 25.2333 33.8737 25.0733 33.7937 24.94C33.7137 24.8013 33.6017 24.6947 33.4577 24.62C33.3137 24.54 33.143 24.5 32.9457 24.5H31.8017V26.34Z" fill="var(--fill-0, white)"/>
<path id="Vector_2" d="M24.4903 29.5L26.5463 23.54H27.9543L30.0103 29.5H28.8263L28.4023 28.22H26.0983L25.6663 29.5H24.4903ZM26.4103 27.26H28.0903L27.0983 24.292H27.4023L26.4103 27.26Z" fill="var(--fill-0, white)"/>
<path id="Vector_3" d="M19.6493 29.5V23.54H21.8653C22.2706 23.54 22.6279 23.6147 22.9373 23.764C23.2519 23.908 23.4973 24.1213 23.6733 24.404C23.8493 24.6813 23.9373 25.02 23.9373 25.42C23.9373 25.8307 23.8386 26.18 23.6413 26.468C23.4493 26.756 23.1879 26.9693 22.8573 27.108L24.2253 29.5H22.9933L21.5293 26.884L22.2333 27.3H20.7373V29.5H19.6493ZM20.7373 26.34H21.8813C22.0786 26.34 22.2493 26.3027 22.3933 26.228C22.5373 26.148 22.6493 26.0387 22.7293 25.9C22.8093 25.7613 22.8493 25.6013 22.8493 25.42C22.8493 25.2333 22.8093 25.0733 22.7293 24.94C22.6493 24.8013 22.5373 24.6947 22.3933 24.62C22.2493 24.54 22.0786 24.5 21.8813 24.5H20.7373V26.34Z" fill="var(--fill-0, white)"/>
</g>
</g>
</svg>
