<svg preserveAspectRatio="none" width="100%" height="100%" overflow="visible" style="display: block;" viewBox="0 0 39 40" fill="none" xmlns="http://www.w3.org/2000/svg">
<g id="Group 381">
<g id="Subtract">
<path fill-rule="evenodd" clip-rule="evenodd" d="M26.3431 2.34315C24.8429 0.842855 22.808 0 20.6863 0H8C3.58172 0 0 3.58172 0 8V32C0 36.4183 3.58172 40 8 40H28C32.4183 40 36 36.4183 36 32V15.3137C36 13.192 35.1571 11.1571 33.6569 9.65685L26.3431 2.34315Z" fill="var(--fill-0, #8B5CF6)"/>
<path fill-rule="evenodd" clip-rule="evenodd" d="M26.3431 2.34315C24.8429 0.842855 22.808 0 20.6863 0H8C3.58172 0 0 3.58172 0 8V32C0 36.4183 3.58172 40 8 40H28C32.4183 40 36 36.4183 36 32V15.3137C36 13.192 35.1571 11.1571 33.6569 9.65685L26.3431 2.34315Z" fill="var(--fill-1, white)" fill-opacity="0.8"/>
</g>
<path id="Intersect" fill-rule="evenodd" clip-rule="evenodd" d="M24 0.718506C24.8639 1.11164 25.6591 1.65903 26.3431 2.34309L33.6569 9.6568C33.6571 9.65703 33.6573 9.65725 33.6575 9.65748C34.3413 10.3414 34.8884 11.1363 35.2814 11.9999H29C26.2386 11.9999 24 9.76137 24 6.99995V0.718506Z" fill="var(--fill-0, #8B5CF6)"/>
<path id="Rectangle 61" d="M15 21.5C15 20.1193 16.1193 19 17.5 19H36.5C37.8807 19 39 20.1193 39 21.5V30.5C39 31.8807 37.8807 33 36.5 33H17.5C16.1193 33 15 31.8807 15 30.5V21.5Z" fill="var(--fill-0, #8B5CF6)"/>
<g id="SVG">
<path id="Vector" d="M32.7603 29.596C32.3336 29.596 31.939 29.5187 31.5763 29.364C31.2136 29.2093 30.8963 28.9933 30.6243 28.716C30.3523 28.4387 30.139 28.1133 29.9843 27.74C29.835 27.3667 29.7603 26.9587 29.7603 26.516C29.7603 26.0733 29.8323 25.6653 29.9763 25.292C30.1256 24.9133 30.3336 24.588 30.6003 24.316C30.8723 24.0387 31.1896 23.8253 31.5523 23.676C31.915 23.5213 32.3096 23.444 32.7363 23.444C33.163 23.444 33.5443 23.516 33.8803 23.66C34.2216 23.804 34.5096 23.996 34.7443 24.236C34.979 24.4707 35.147 24.7293 35.2483 25.012L34.2803 25.476C34.1683 25.1667 33.979 24.916 33.7123 24.724C33.4456 24.532 33.1203 24.436 32.7363 24.436C32.363 24.436 32.0323 24.524 31.7443 24.7C31.4616 24.876 31.2403 25.1187 31.0803 25.428C30.9256 25.7373 30.8483 26.1 30.8483 26.516C30.8483 26.932 30.9283 27.2973 31.0883 27.612C31.2536 27.9213 31.4803 28.164 31.7683 28.34C32.0563 28.516 32.387 28.604 32.7603 28.604C33.0643 28.604 33.3443 28.5453 33.6003 28.428C33.8563 28.3053 34.0616 28.1347 34.2163 27.916C34.371 27.692 34.4483 27.428 34.4483 27.124V26.668L34.9443 27.1H32.7363V26.18H35.5363V26.78C35.5363 27.2387 35.459 27.644 35.3043 27.996C35.1496 28.348 34.939 28.644 34.6723 28.884C34.411 29.1187 34.115 29.2973 33.7843 29.42C33.4536 29.5373 33.1123 29.596 32.7603 29.596Z" fill="var(--fill-0, white)"/>
<path id="Vector_2" d="M26.0664 29.5L23.9864 23.54H25.1704L26.8024 28.476H26.5704L28.2024 23.54H29.3864L27.3144 29.5H26.0664Z" fill="var(--fill-0, white)"/>
<path id="Vector_3" d="M21.3827 29.596C21.0041 29.596 20.6521 29.5267 20.3267 29.388C20.0067 29.2493 19.7294 29.0573 19.4947 28.812C19.2654 28.5613 19.0974 28.2707 18.9907 27.94L19.8947 27.548C20.0387 27.8893 20.2467 28.1587 20.5187 28.356C20.7907 28.548 21.0974 28.644 21.4387 28.644C21.6307 28.644 21.7961 28.6147 21.9347 28.556C22.0787 28.492 22.1881 28.4067 22.2627 28.3C22.3427 28.1933 22.3827 28.0653 22.3827 27.916C22.3827 27.74 22.3294 27.596 22.2227 27.484C22.1214 27.3667 21.9667 27.276 21.7587 27.212L20.6147 26.844C20.1507 26.7 19.8014 26.484 19.5667 26.196C19.3321 25.908 19.2147 25.5693 19.2147 25.18C19.2147 24.8387 19.2974 24.5373 19.4627 24.276C19.6334 24.0147 19.8681 23.812 20.1667 23.668C20.4707 23.5187 20.8174 23.444 21.2067 23.444C21.5641 23.444 21.8921 23.508 22.1907 23.636C22.4894 23.7587 22.7454 23.932 22.9587 24.156C23.1774 24.3747 23.3401 24.6333 23.4467 24.932L22.5507 25.332C22.4334 25.0333 22.2574 24.804 22.0227 24.644C21.7881 24.4787 21.5161 24.396 21.2067 24.396C21.0254 24.396 20.8654 24.428 20.7267 24.492C20.5881 24.5507 20.4787 24.636 20.3987 24.748C20.3241 24.8547 20.2867 24.9827 20.2867 25.132C20.2867 25.2973 20.3401 25.444 20.4467 25.572C20.5534 25.6947 20.7161 25.7907 20.9347 25.86L22.0307 26.204C22.5054 26.3587 22.8601 26.572 23.0947 26.844C23.3347 27.116 23.4547 27.452 23.4547 27.852C23.4547 28.1933 23.3667 28.4947 23.1907 28.756C23.0147 29.0173 22.7721 29.2227 22.4627 29.372C22.1534 29.5213 21.7934 29.596 21.3827 29.596Z" fill="var(--fill-0, white)"/>
</g>
</g>
</svg>
