<svg preserveAspectRatio="none" width="100%" height="100%" overflow="visible" style="display: block;" viewBox="0 0 39 40" fill="none" xmlns="http://www.w3.org/2000/svg">
<g id="Group 381">
<g id="Subtract">
<path fill-rule="evenodd" clip-rule="evenodd" d="M26.3431 2.34315C24.8429 0.842855 22.808 0 20.6863 0H8C3.58172 0 0 3.58172 0 8V32C0 36.4183 3.58172 40 8 40H28C32.4183 40 36 36.4183 36 32V15.3137C36 13.192 35.1571 11.1571 33.6569 9.65685L26.3431 2.34315Z" fill="var(--fill-0, #4F46E5)"/>
<path fill-rule="evenodd" clip-rule="evenodd" d="M26.3431 2.34315C24.8429 0.842855 22.808 0 20.6863 0H8C3.58172 0 0 3.58172 0 8V32C0 36.4183 3.58172 40 8 40H28C32.4183 40 36 36.4183 36 32V15.3137C36 13.192 35.1571 11.1571 33.6569 9.65685L26.3431 2.34315Z" fill="var(--fill-1, white)" fill-opacity="0.8"/>
</g>
<path id="Intersect" fill-rule="evenodd" clip-rule="evenodd" d="M24 0.718506C24.8639 1.11164 25.6591 1.65903 26.3431 2.34309L33.6569 9.6568C33.6571 9.65703 33.6573 9.65725 33.6575 9.65748C34.3413 10.3414 34.8884 11.1363 35.2814 11.9999H29C26.2386 11.9999 24 9.76137 24 6.99995V0.718506Z" fill="var(--fill-0, #4F46E5)"/>
<path id="Rectangle 61" d="M15 21.5C15 20.1193 16.1193 19 17.5 19H36.5C37.8807 19 39 20.1193 39 21.5V30.5C39 31.8807 37.8807 33 36.5 33H17.5C16.1193 33 15 31.8807 15 30.5V21.5Z" fill="var(--fill-0, #4F46E5)"/>
<g id="WAV">
<path id="Vector" d="M33.0049 29.5L30.9249 23.54H32.1089L33.7409 28.476H33.5089L35.1409 23.54H36.3249L34.2529 29.5H33.0049Z" fill="var(--fill-0, white)"/>
<path id="Vector_2" d="M25.5489 29.5L27.6049 23.54H29.0129L31.0689 29.5H29.8849L29.4609 28.22H27.1569L26.7249 29.5H25.5489ZM27.4689 27.26H29.1489L28.1569 24.292H28.4609L27.4689 27.26Z" fill="var(--fill-0, white)"/>
<path id="Vector_3" d="M19.273 29.5L17.673 23.54H18.841L20.097 28.62H19.793L21.105 23.54H22.233L23.537 28.62H23.233L24.489 23.54H25.657L24.057 29.5H22.809L21.489 24.556H21.841L20.521 29.5H19.273Z" fill="var(--fill-0, white)"/>
</g>
</g>
</svg>
