<svg preserveAspectRatio="none" width="100%" height="100%" overflow="visible" style="display: block;" viewBox="0 0 39 40" fill="none" xmlns="http://www.w3.org/2000/svg">
<g id="Group 381">
<g id="Subtract">
<path fill-rule="evenodd" clip-rule="evenodd" d="M26.3431 2.34315C24.8429 0.842855 22.808 0 20.6863 0H8C3.58172 0 0 3.58172 0 8V32C0 36.4183 3.58172 40 8 40H28C32.4183 40 36 36.4183 36 32V15.3137C36 13.192 35.1571 11.1571 33.6569 9.65685L26.3431 2.34315Z" fill="var(--fill-0, #F59E0B)"/>
<path fill-rule="evenodd" clip-rule="evenodd" d="M26.3431 2.34315C24.8429 0.842855 22.808 0 20.6863 0H8C3.58172 0 0 3.58172 0 8V32C0 36.4183 3.58172 40 8 40H28C32.4183 40 36 36.4183 36 32V15.3137C36 13.192 35.1571 11.1571 33.6569 9.65685L26.3431 2.34315Z" fill="var(--fill-1, white)" fill-opacity="0.8"/>
</g>
<path id="Intersect" fill-rule="evenodd" clip-rule="evenodd" d="M24 0.718506C24.8639 1.11164 25.6591 1.65903 26.3431 2.34309L33.6569 9.6568C33.6571 9.65703 33.6573 9.65725 33.6575 9.65748C34.3413 10.3414 34.8884 11.1363 35.2814 11.9999H29C26.2386 11.9999 24 9.76137 24 6.99995V0.718506Z" fill="var(--fill-0, #F59E0B)"/>
<path id="Rectangle 61" d="M15 21.5C15 20.1193 16.1193 19 17.5 19H36.5C37.8807 19 39 20.1193 39 21.5V30.5C39 31.8807 37.8807 33 36.5 33H17.5C16.1193 33 15 31.8807 15 30.5V21.5Z" fill="var(--fill-0, #F59E0B)"/>
<g id="ZIP">
<path id="Vector" d="M28.6746 29.5V23.54H30.8986C31.3039 23.54 31.6613 23.6147 31.9706 23.764C32.2853 23.908 32.5306 24.1213 32.7066 24.404C32.8826 24.6813 32.9706 25.02 32.9706 25.42C32.9706 25.8147 32.8799 26.1533 32.6986 26.436C32.5226 26.7133 32.2799 26.9267 31.9706 27.076C31.6613 27.2253 31.3039 27.3 30.8986 27.3H29.7626V29.5H28.6746ZM29.7626 26.34H30.9146C31.1119 26.34 31.2826 26.3027 31.4266 26.228C31.5706 26.148 31.6826 26.0387 31.7626 25.9C31.8426 25.7613 31.8826 25.6013 31.8826 25.42C31.8826 25.2333 31.8426 25.0733 31.7626 24.94C31.6826 24.8013 31.5706 24.6947 31.4266 24.62C31.2826 24.54 31.1119 24.5 30.9146 24.5H29.7626V26.34Z" fill="var(--fill-0, white)"/>
<path id="Vector_2" d="M26.4002 29.5V23.54H27.4882V29.5H26.4002Z" fill="var(--fill-0, white)"/>
<path id="Vector_3" d="M21.3259 29.5V28.644L24.2139 24.5H21.4939V23.54H25.5979V24.396L22.7179 28.54H25.6779V29.5H21.3259Z" fill="var(--fill-0, white)"/>
</g>
</g>
</svg>
